<svg xmlns="http://www.w3.org/2000/svg" width="1600" height="900" viewBox="0 0 1600 900">
  <defs>
    <radialGradient id="g1" cx="20%" cy="20%" r="70%">
      <stop offset="0" stop-color="#64B5FF" stop-opacity="0.35"/>
      <stop offset="1" stop-color="#07080c" stop-opacity="0"/>
    </radialGradient>
    <radialGradient id="g2" cx="80%" cy="25%" r="70%">
      <stop offset="0" stop-color="#A66BFF" stop-opacity="0.30"/>
      <stop offset="1" stop-color="#07080c" stop-opacity="0"/>
    </radialGradient>
    <linearGradient id="g3" x1="0" y1="0" x2="0" y2="1">
      <stop offset="0" stop-color="#07080c"/>
      <stop offset="1" stop-color="#0b0f1a"/>
    </linearGradient>
    <filter id="blur" x="-20%" y="-20%" width="140%" height="140%">
      <feGaussianBlur stdDeviation="40"/>
    </filter>
  </defs>
  <rect width="1600" height="900" fill="url(#g3)"/>
  <circle cx="320" cy="240" r="420" fill="url(#g1)" filter="url(#blur)"/>
  <circle cx="1260" cy="220" r="420" fill="url(#g2)" filter="url(#blur)"/>
  <circle cx="820" cy="680" r="520" fill="#ff775a" opacity="0.08" filter="url(#blur)"/>
  <g opacity="0.12">
    <path d="M-40,610 C220,520 360,760 620,670 C900,570 980,780 1240,690 C1420,630 1520,660 1680,620" fill="none" stroke="#ffffff" stroke-width="2"/>
    <path d="M-40,640 C220,550 360,790 620,700 C900,600 980,810 1240,720 C1420,660 1520,690 1680,650" fill="none" stroke="#64B5FF" stroke-width="2"/>
    <path d="M-40,670 C220,580 360,820 620,730 C900,630 980,840 1240,750 C1420,690 1520,720 1680,680" fill="none" stroke="#A66BFF" stroke-width="2"/>
  </g>
</svg>
